<?xml version="1.0" encoding="UTF-8"?>
<!DOCTYPE svg PUBLIC "-//W3C//DTD SVG 1.1//EN" "http://www.w3.org/Graphics/SVG/1.1/DTD/svg11.dtd">
<svg xmlns="http://www.w3.org/2000/svg" version="1.1" width="370px" height="82px" style="shape-rendering:geometricPrecision; text-rendering:geometricPrecision; image-rendering:optimizeQuality; fill-rule:evenodd; clip-rule:evenodd" xmlns:xlink="http://www.w3.org/1999/xlink">
<g><path style="opacity:1" fill="#000a11" d="M -0.5,-0.5 C 17.8333,-0.5 36.1667,-0.5 54.5,-0.5C 54.178,1.72241 54.8446,3.55575 56.5,5C 60.5,5.33333 64.5,5.66667 68.5,6C 65.7215,6.14924 65.2215,6.98257 67,8.5C 67.3333,13.1667 67.6667,17.8333 68,22.5C 68.2784,23.4158 68.7784,24.0825 69.5,24.5C 69.9175,25.2216 70.5842,25.7216 71.5,26C 67.5919,25.8604 65.4252,27.6938 65,31.5C 64.8333,33.3333 64.6667,35.1667 64.5,37C 64.6004,39.3023 65.267,41.3023 66.5,43C 65.5761,44.4892 64.5761,44.6559 63.5,43.5C 63.1825,37.5135 62.1825,31.3468 60.5,25C 60.7549,23.6739 61.4216,22.6739 62.5,22C 61.2982,19.8189 61.2982,17.3189 62.5,14.5C 62.7678,12.901 62.4345,11.5676 61.5,10.5C 61.3893,9.88258 61.056,9.38258 60.5,9C 57.8333,8.83333 55.1667,8.66667 52.5,8.5C 49.4098,8.52168 46.7432,9.18834 44.5,10.5C 45.5946,15.4304 46.2612,20.4304 46.5,25.5C 46.7913,37.2172 46.458,48.8838 45.5,60.5C 45.5,61.5 45.5,62.5 45.5,63.5C 55.5,63.5 65.5,63.5 75.5,63.5C 75.5,61.1667 75.5,58.8333 75.5,56.5C 76.6266,55.8783 77.6266,55.045 78.5,54C 78.096,51.9303 78.096,49.7637 78.5,47.5C 77.8113,45.6473 76.478,44.4807 74.5,44C 77.4121,38.6476 77.7455,32.9809 75.5,27C 75.2432,25.6285 75.5765,24.1285 76.5,22.5C 75.5347,19.0362 74.5347,16.0362 73.5,13.5C 73.3367,11.1432 73.5034,8.80982 74,6.5C 75.8605,8.88772 77.1939,11.5544 78,14.5C 78.69,15.7383 79.19,15.7383 79.5,14.5C 80.4834,18.2984 80.8168,22.2984 80.5,26.5C 81.0304,38.6343 80.3637,50.6343 78.5,62.5C 83.6405,63.4881 88.9738,63.8214 94.5,63.5C 94.7845,61.5853 94.4511,59.9187 93.5,58.5C 93.2172,57.7109 92.7172,57.0442 92,56.5C 91.5001,43.8377 91.3334,31.1711 91.5,18.5C 92.0427,15.9616 93.0427,13.6282 94.5,11.5C 94.5,10.5 94.5,9.5 94.5,8.5C 89.5,8.5 84.5,8.5 79.5,8.5C 78.8333,8.5 78.1667,8.5 77.5,8.5C 76.2264,7.81056 76.2264,6.97722 77.5,6C 83.1667,5.66667 88.8333,5.33333 94.5,5C 94.8541,3.37449 94.8541,1.54116 94.5,-0.5C 96.1667,-0.5 97.8333,-0.5 99.5,-0.5C 99.5,1.5 99.5,3.5 99.5,5.5C 103.167,5.5 106.833,5.5 110.5,5.5C 112.781,6.63445 112.781,7.96778 110.5,9.5C 106.265,8.56404 101.931,8.23071 97.5,8.5C 99.2566,23.7575 99.9232,39.0908 99.5,54.5C 97.877,57.2153 97.2104,60.2153 97.5,63.5C 102.833,63.5 108.167,63.5 113.5,63.5C 113.923,61.2188 113.256,59.5521 111.5,58.5C 109.432,50.3913 108.932,42.0579 110,33.5C 112.793,39.3804 115.293,45.3804 117.5,51.5C 118.5,51.5 119.5,51.5 120.5,51.5C 122.223,45.5722 124.723,39.9055 128,34.5C 128.5,41.4921 128.666,48.4921 128.5,55.5C 126.016,57.5452 125.016,60.2118 125.5,63.5C 130.833,63.5 136.167,63.5 141.5,63.5C 142.328,58.5415 143.994,53.8749 146.5,49.5C 146.721,52.2788 146.388,54.9455 145.5,57.5C 144.539,59.2646 144.205,61.2646 144.5,63.5C 144.5,64.5 144.5,65.5 144.5,66.5C 154.5,66.5 164.5,66.5 174.5,66.5C 174.5,65.5 174.5,64.5 174.5,63.5C 174.5,58.8333 174.5,54.1667 174.5,49.5C 176.268,53.0442 177.102,57.0442 177,61.5C 178.351,63.019 179.851,64.3523 181.5,65.5C 188.5,66.8333 195.5,66.8333 202.5,65.5C 205.263,62.7485 207.597,59.7485 209.5,56.5C 209.774,51.737 209.441,47.0704 208.5,42.5C 209.469,41.6906 210.302,40.6906 211,39.5C 211.777,42.4294 211.61,45.2628 210.5,48C 211.085,49.3024 211.751,50.469 212.5,51.5C 212.025,54.0821 212.692,56.0821 214.5,57.5C 214.5,58.1667 214.833,58.5 215.5,58.5C 216.117,60.2292 217.117,61.7292 218.5,63C 225.167,63.6667 231.833,63.6667 238.5,63C 239.056,62.6174 239.389,62.1174 239.5,61.5C 241.252,59.7541 242.585,57.7541 243.5,55.5C 243.5,52.8333 243.5,50.1667 243.5,47.5C 245.371,43.1338 246.038,38.4671 245.5,33.5C 243.669,34.0522 242.003,34.0522 240.5,33.5C 239.522,33.9767 238.689,34.6433 238,35.5C 236.874,34.0564 235.374,33.3898 233.5,33.5C 230.709,33.7785 227.876,34.1118 225,34.5C 225.614,30.4786 225.447,26.4786 224.5,22.5C 227.119,22.7683 229.619,22.435 232,21.5C 233.312,23.9552 234.478,26.4552 235.5,29C 237.5,29.6667 239.5,29.6667 241.5,29C 242.756,28.5831 243.423,27.7498 243.5,26.5C 243.5,22.5 243.5,18.5 243.5,14.5C 244.309,16.2922 244.809,18.2922 245,20.5C 246.749,19.701 248.082,20.3676 249,22.5C 249.333,22.1667 249.667,21.8333 250,21.5C 249.951,16.323 250.118,10.9897 250.5,5.5C 259.506,5.66644 268.506,5.49977 277.5,5C 277.33,3.43049 276.997,1.59716 276.5,-0.5C 307.5,-0.5 338.5,-0.5 369.5,-0.5C 369.5,26.8333 369.5,54.1667 369.5,81.5C 306.5,81.5 243.5,81.5 180.5,81.5C 180.596,79.4041 180.596,77.2374 180.5,75C 170.801,73.137 161.134,73.137 151.5,75C 150.577,77.0408 150.244,79.2075 150.5,81.5C 100.167,81.5 49.8333,81.5 -0.5,81.5C -0.5,54.1667 -0.5,26.8333 -0.5,-0.5 Z"/></g>
<g><path style="opacity:1" fill="#000f1a" d="M 54.5,-0.5 C 67.8333,-0.5 81.1667,-0.5 94.5,-0.5C 94.8541,1.54116 94.8541,3.37449 94.5,5C 88.8333,5.33333 83.1667,5.66667 77.5,6C 76.2264,6.97722 76.2264,7.81056 77.5,8.5C 77.9707,10.5786 78.6373,12.5786 79.5,14.5C 79.19,15.7383 78.69,15.7383 78,14.5C 77.1939,11.5544 75.8605,8.88772 74,6.5C 73.5034,8.80982 73.3367,11.1432 73.5,13.5C 72.776,15.2184 72.1094,17.0517 71.5,19C 76.7286,23.2482 76.0619,25.0816 69.5,24.5C 68.7784,24.0825 68.2784,23.4158 68,22.5C 67.6667,17.8333 67.3333,13.1667 67,8.5C 65.2215,6.98257 65.7215,6.14924 68.5,6C 64.5,5.66667 60.5,5.33333 56.5,5C 54.8446,3.55575 54.178,1.72241 54.5,-0.5 Z"/></g>
<g><path style="opacity:1" fill="#00111c" d="M 99.5,-0.5 C 131.833,-0.5 164.167,-0.5 196.5,-0.5C 196.643,1.26241 196.309,2.92908 195.5,4.5C 191.285,5.79766 187.118,5.79766 183,4.5C 181.915,5.29311 180.748,5.95978 179.5,6.5C 170.376,4.96764 161.543,4.63431 153,5.5C 150.05,5.43239 147.383,4.76572 145,3.5C 142.617,4.76572 139.95,5.43239 137,5.5C 134.05,5.43239 131.383,4.76572 129,3.5C 128.149,6.61243 126.983,6.94576 125.5,4.5C 124.186,5.31277 123.019,6.31277 122,7.5C 121.333,6.83333 120.667,6.16667 120,5.5C 118.426,6.98417 117.093,8.65084 116,10.5C 113.684,9.47759 113.184,7.97759 114.5,6C 113.054,4.70204 111.721,4.53537 110.5,5.5C 106.833,5.5 103.167,5.5 99.5,5.5C 99.5,3.5 99.5,1.5 99.5,-0.5 Z"/></g>
<g><path style="opacity:1" fill="#000f19" d="M 231.5,-0.5 C 246.5,-0.5 261.5,-0.5 276.5,-0.5C 276.997,1.59716 277.33,3.43049 277.5,5C 268.506,5.49977 259.506,5.66644 250.5,5.5C 243.994,5.47565 237.327,5.30898 230.5,5C 231.406,3.30054 231.739,1.4672 231.5,-0.5 Z"/></g>
<g><path style="opacity:1" fill="#010c13" d="M 196.5,-0.5 C 198.167,-0.5 199.833,-0.5 201.5,-0.5C 201.5,1.5 201.5,3.5 201.5,5.5C 204.079,5.08332 206.246,5.74999 208,7.5C 208.333,7.16667 208.667,6.83333 209,6.5C 210.009,8.02494 210.509,9.69161 210.5,11.5C 211.822,11.67 212.989,11.3366 214,10.5C 214.129,7.99729 215.129,5.99729 217,4.5C 219.68,4.98472 222.347,5.31805 225,5.5C 226.128,3.65472 226.628,1.65472 226.5,-0.5C 228.167,-0.5 229.833,-0.5 231.5,-0.5C 231.739,1.4672 231.406,3.30054 230.5,5C 237.327,5.30898 243.994,5.47565 250.5,5.5C 250.118,10.9897 249.951,16.323 250,21.5C 249.667,21.8333 249.333,22.1667 249,22.5C 248.082,20.3676 246.749,19.701 245,20.5C 244.809,18.2922 244.309,16.2922 243.5,14.5C 240.9,12.7166 238.566,10.7166 236.5,8.5C 230.824,8.33391 225.157,8.50058 219.5,9C 217.627,10.7038 215.96,12.5372 214.5,14.5C 213.883,14.6107 213.383,14.944 213,15.5C 212.5,27.4954 212.333,39.4954 212.5,51.5C 211.751,50.469 211.085,49.3024 210.5,48C 211.61,45.2628 211.777,42.4294 211,39.5C 210.302,40.6906 209.469,41.6906 208.5,42.5C 208.167,42.5 207.833,42.5 207.5,42.5C 205.557,39.5293 202.891,37.5293 199.5,36.5C 199.672,35.5084 199.338,34.8417 198.5,34.5C 196.353,32.5305 194.02,30.6971 191.5,29C 189.859,27.871 188.859,26.371 188.5,24.5C 188.5,23.1667 188.5,21.8333 188.5,20.5C 195.103,19.0576 200.436,20.8909 204.5,26C 205.793,26.49 207.127,26.6567 208.5,26.5C 208.666,22.1539 208.499,17.8206 208,13.5C 206.161,11.7988 204.327,10.1322 202.5,8.5C 196.158,8.33379 189.825,8.50046 183.5,9C 181.627,10.7038 179.96,12.5372 178.5,14.5C 177.883,14.6107 177.383,14.944 177,15.5C 176.333,21.5 176.333,27.5 177,33.5C 183.809,38.1481 190.309,43.1481 196.5,48.5C 196.333,48.8333 196.167,49.1667 196,49.5C 193.691,48.0248 191.524,46.3581 189.5,44.5C 188.833,44.8333 188.167,45.1667 187.5,45.5C 183.674,40.1007 178.674,36.4341 172.5,34.5C 172.762,35.9778 172.429,37.3112 171.5,38.5C 170.131,36.2361 169.131,33.9028 168.5,31.5C 164.833,31.5 161.167,31.5 157.5,31.5C 157.5,27.8333 157.5,24.1667 157.5,20.5C 163.222,20.7786 168.889,21.4453 174.5,22.5C 174.819,17.6367 174.486,12.97 173.5,8.5C 164.5,8.5 155.5,8.5 146.5,8.5C 144.171,10.9959 144.004,13.6626 146,16.5C 147.063,27.5706 147.23,38.5706 146.5,49.5C 143.994,53.8749 142.328,58.5415 141.5,63.5C 141.819,61.2495 141.319,59.2495 140,57.5C 139.5,43.1705 139.333,28.8372 139.5,14.5C 141.176,13.8166 141.843,12.4832 141.5,10.5C 137.627,8.56977 133.294,7.9031 128.5,8.5C 125.274,13.9468 122.274,19.6135 119.5,25.5C 116.984,21.8159 115.15,17.8159 114,13.5C 112.624,12.2949 111.458,10.9616 110.5,9.5C 112.781,7.96778 112.781,6.63445 110.5,5.5C 111.721,4.53537 113.054,4.70204 114.5,6C 113.184,7.97759 113.684,9.47759 116,10.5C 117.093,8.65084 118.426,6.98417 120,5.5C 120.667,6.16667 121.333,6.83333 122,7.5C 123.019,6.31277 124.186,5.31277 125.5,4.5C 126.983,6.94576 128.149,6.61243 129,3.5C 131.383,4.76572 134.05,5.43239 137,5.5C 139.95,5.43239 142.617,4.76572 145,3.5C 147.383,4.76572 150.05,5.43239 153,5.5C 161.543,4.63431 170.376,4.96764 179.5,6.5C 180.748,5.95978 181.915,5.29311 183,4.5C 187.118,5.79766 191.285,5.79766 195.5,4.5C 196.309,2.92908 196.643,1.26241 196.5,-0.5 Z"/></g>
<g><path style="opacity:1" fill="#00111c" d="M 201.5,-0.5 C 209.833,-0.5 218.167,-0.5 226.5,-0.5C 226.628,1.65472 226.128,3.65472 225,5.5C 222.347,5.31805 219.68,4.98472 217,4.5C 215.129,5.99729 214.129,7.99729 214,10.5C 212.989,11.3366 211.822,11.67 210.5,11.5C 210.509,9.69161 210.009,8.02494 209,6.5C 208.667,6.83333 208.333,7.16667 208,7.5C 206.246,5.74999 204.079,5.08332 201.5,5.5C 201.5,3.5 201.5,1.5 201.5,-0.5 Z"/></g>
<g><path style="opacity:1" fill="#17303b" d="M 303.5,59.5 C 302.778,59.9175 302.278,60.5842 302,61.5C 301.667,61.1667 301.333,60.8333 301,60.5C 300.667,61.5 300.333,62.5 300,63.5C 298.414,62.624 296.914,61.624 295.5,60.5C 293.044,60.7822 290.711,60.7822 288.5,60.5C 287.721,51.5466 287.221,42.5466 287,33.5C 286,32.1667 285,30.8333 284,29.5C 283.501,24.5111 283.334,19.5111 283.5,14.5C 283.747,11.4132 284.747,8.57987 286.5,6C 292.885,5.20732 299.218,5.37399 305.5,6.5C 309.371,11.8418 310.371,17.6751 308.5,24C 305.232,28.1019 301.232,31.2686 296.5,33.5C 295.338,38.1313 295.172,42.798 296,47.5C 298.248,49.8162 300.581,52.1496 303,54.5C 303.494,56.1341 303.66,57.8008 303.5,59.5 Z"/></g>
<g><path style="opacity:1" fill="#21373f" d="M 79.5,8.5 C 84.5,8.5 89.5,8.5 94.5,8.5C 94.5,9.5 94.5,10.5 94.5,11.5C 90.0107,11.0555 85.6774,10.8889 81.5,11C 80.244,10.5831 79.5774,9.74975 79.5,8.5 Z"/></g>
<g><path style="opacity:1" fill="#263c42" d="M 128.5,8.5 C 133.294,7.9031 137.627,8.56977 141.5,10.5C 137.158,10.7395 132.824,11.0728 128.5,11.5C 128.5,10.5 128.5,9.5 128.5,8.5 Z"/></g>
<g><path style="opacity:1" fill="#273f46" d="M 202.5,8.5 C 202.414,9.4959 202.748,10.3292 203.5,11C 197.639,11.7203 191.806,11.5537 186,10.5C 183.371,12.2912 180.871,14.2912 178.5,16.5C 178.5,15.8333 178.5,15.1667 178.5,14.5C 179.96,12.5372 181.627,10.7038 183.5,9C 189.825,8.50046 196.158,8.33379 202.5,8.5 Z"/></g>
<g><path style="opacity:1" fill="#243c44" d="M 255.5,8.5 C 261.833,8.5 268.167,8.5 274.5,8.5C 274.5,11.1667 274.5,13.8333 274.5,16.5C 272.401,15.6303 272.068,14.297 273.5,12.5C 267.862,11.6701 262.196,11.1701 256.5,11C 255.748,10.3292 255.414,9.4959 255.5,8.5 Z"/></g>
<g><path style="opacity:1" fill="#1f353e" d="M 23.5,8.5 C 28.8437,8.33398 34.1771,8.50065 39.5,9C 40.056,9.38258 40.3893,9.88258 40.5,10.5C 40.6621,12.5273 40.4955,14.5273 40,16.5C 39.6905,15.2341 39.1905,14.0674 38.5,13C 38.8333,12.6667 39.1667,12.3333 39.5,12C 33.8333,11.6667 28.1667,11.3333 22.5,11C 22.1667,10.6667 21.8333,10.3333 21.5,10C 22.4158,9.72158 23.0825,9.22158 23.5,8.5 Z"/></g>
<g><path style="opacity:1" fill="#223940" d="M 61.5,10.5 C 55.9327,11.804 50.266,11.804 44.5,10.5C 46.7432,9.18834 49.4098,8.52168 52.5,8.5C 55.1667,8.66667 57.8333,8.83333 60.5,9C 61.056,9.38258 61.3893,9.88258 61.5,10.5 Z"/></g>
<g><path style="opacity:1" fill="#233b43" d="M 236.5,8.5 C 236.5,9.5 236.5,10.5 236.5,11.5C 230.824,11.3339 225.157,11.5006 219.5,12C 218.211,13.8022 216.544,14.9688 214.5,15.5C 214.5,15.1667 214.5,14.8333 214.5,14.5C 215.96,12.5372 217.627,10.7038 219.5,9C 225.157,8.50058 230.824,8.33391 236.5,8.5 Z"/></g>
<g><path style="opacity:1" fill="#19323d" d="M 202.5,8.5 C 204.327,10.1322 206.161,11.7988 208,13.5C 208.499,17.8206 208.666,22.1539 208.5,26.5C 207.127,26.6567 205.793,26.49 204.5,26C 200.436,20.8909 195.103,19.0576 188.5,20.5C 188.5,21.8333 188.5,23.1667 188.5,24.5C 187.732,23.7375 187.232,22.7375 187,21.5C 186.333,23.5 186.333,25.5 187,27.5C 190.115,29.6471 192.948,32.1471 195.5,35C 196.749,35.7401 197.749,35.5735 198.5,34.5C 199.338,34.8417 199.672,35.5084 199.5,36.5C 200.932,39.1023 202.932,41.2689 205.5,43C 206.437,43.6917 207.103,43.525 207.5,42.5C 207.833,42.5 208.167,42.5 208.5,42.5C 209.441,47.0704 209.774,51.737 209.5,56.5C 207.668,57.2485 206.001,58.2485 204.5,59.5C 202.254,59.9361 200.087,60.6028 198,61.5C 196.195,60.5899 194.362,59.5899 192.5,58.5C 191.808,59.0253 191.308,59.6919 191,60.5C 190.505,58.5273 190.338,56.5273 190.5,54.5C 188.5,55.1667 186.5,55.8333 184.5,56.5C 184.371,52.515 182.537,51.1817 179,52.5C 178.517,51.552 178.351,50.552 178.5,49.5C 178.328,48.5084 178.662,47.8417 179.5,47.5C 181.094,48.983 182.76,50.483 184.5,52C 185.437,52.6917 186.103,52.525 186.5,51.5C 189.743,52.58 193.076,52.7466 196.5,52C 197.516,51.4806 198.182,50.6473 198.5,49.5C 197.74,47.5634 196.74,45.7301 195.5,44C 189.913,40.2899 184.413,36.4565 179,32.5C 178.501,27.1771 178.334,21.8437 178.5,16.5C 180.871,14.2912 183.371,12.2912 186,10.5C 191.806,11.5537 197.639,11.7203 203.5,11C 202.748,10.3292 202.414,9.4959 202.5,8.5 Z"/></g>
<g><path style="opacity:1" fill="#010910" d="M 293.5,14.5 C 296.247,14.1866 298.914,14.52 301.5,15.5C 303.877,17.2521 304.044,19.2521 302,21.5C 299.912,22.3081 297.912,23.3081 296,24.5C 294.27,24.4908 292.437,24.1575 290.5,23.5C 290.291,22.914 289.957,22.414 289.5,22C 291.496,19.8377 292.83,17.3377 293.5,14.5 Z"/></g>
<g><path style="opacity:1" fill="#102630" d="M 313.5,6.5 C 313.5,7.5 313.5,8.5 313.5,9.5C 322.506,9.66644 331.506,9.49977 340.5,9C 344.311,9.08346 347.645,8.25013 350.5,6.5C 351.487,11.3054 351.821,16.3054 351.5,21.5C 347.634,23.3111 344.634,22.4778 342.5,19C 337.177,18.5006 331.844,18.334 326.5,18.5C 327.472,15.9792 326.472,15.1458 323.5,16C 322.5,19.3333 321.5,19.3333 320.5,16C 319.5,15.6667 318.5,15.3333 317.5,15C 318.517,13.9505 318.684,12.7839 318,11.5C 316.853,12.4581 315.853,12.1247 315,10.5C 313.961,11.2438 313.461,12.2438 313.5,13.5C 312.007,12.6879 311.34,11.3545 311.5,9.5C 311.64,7.97041 312.307,6.97041 313.5,6.5 Z"/></g>
<g><path style="opacity:1" fill="#1f353d" d="M 313.5,6.5 C 325.833,6.5 338.167,6.5 350.5,6.5C 347.645,8.25013 344.311,9.08346 340.5,9C 331.506,9.49977 322.506,9.66644 313.5,9.5C 313.5,8.5 313.5,7.5 313.5,6.5 Z"/></g>
<g><path style="opacity:1" fill="#162f3a" d="M 236.5,8.5 C 238.566,10.7166 240.9,12.7166 243.5,14.5C 243.5,18.5 243.5,22.5 243.5,26.5C 240.833,26.5 238.167,26.5 235.5,26.5C 235.842,22.1757 233.842,20.1757 229.5,20.5C 224.58,20.1862 222.58,22.5196 223.5,27.5C 222.732,26.7375 222.232,25.7375 222,24.5C 221.333,33.5 221.333,42.5 222,51.5C 224.077,52.9577 226.41,53.6243 229,53.5C 233.623,52.3285 238.123,50.9952 242.5,49.5C 242.205,51.7354 242.539,53.7354 243.5,55.5C 242.585,57.7541 241.252,59.7541 239.5,61.5C 237.678,60.719 237.011,59.5523 237.5,58C 236.271,57.2189 234.938,56.7189 233.5,56.5C 231.528,57.4426 229.695,57.7759 228,57.5C 227,56.8333 226,56.1667 225,55.5C 223.907,57.3492 222.574,59.0158 221,60.5C 220.477,58.7774 219.477,57.444 218,56.5C 216.699,56.6387 215.866,57.3054 215.5,58.5C 214.833,58.5 214.5,58.1667 214.5,57.5C 214.462,48.1536 214.129,38.8203 213.5,29.5C 216.386,29.3901 218.72,28.2234 220.5,26C 220.167,25.5 219.833,25 219.5,24.5C 218.11,26.2029 216.61,26.8696 215,26.5C 214.501,22.8484 214.335,19.1817 214.5,15.5C 216.544,14.9688 218.211,13.8022 219.5,12C 225.157,11.5006 230.824,11.3339 236.5,11.5C 236.5,10.5 236.5,9.5 236.5,8.5 Z"/></g>
<g><path style="opacity:1" fill="#142a35" d="M 23.5,8.5 C 23.0825,9.22158 22.4158,9.72158 21.5,10C 21.8333,10.3333 22.1667,10.6667 22.5,11C 28.1667,11.3333 33.8333,11.6667 39.5,12C 39.1667,12.3333 38.8333,12.6667 38.5,13C 39.1905,14.0674 39.6905,15.2341 40,16.5C 40.4955,14.5273 40.6621,12.5273 40.5,10.5C 41.8042,15.37 41.8042,20.37 40.5,25.5C 38.8125,26.568 37.1459,26.4014 35.5,25C 34.6426,22.9812 33.3092,21.4812 31.5,20.5C 29.0314,19.6829 26.3647,19.1829 23.5,19C 22.3128,17.9805 21.3128,16.8139 20.5,15.5C 21.5896,14.3914 21.5896,13.3914 20.5,12.5C 19.8027,14.3845 18.8027,14.7178 17.5,13.5C 14.7581,16.2047 13.7581,15.8713 14.5,12.5C 16.5907,9.45729 19.5907,8.12396 23.5,8.5 Z"/></g>
<g><path style="opacity:1" fill="#0f242f" d="M 14.5,12.5 C 13.7581,15.8713 14.7581,16.2047 17.5,13.5C 18.8027,14.7178 19.8027,14.3845 20.5,12.5C 21.5896,13.3914 21.5896,14.3914 20.5,15.5C 21.3128,16.8139 22.3128,17.9805 23.5,19C 26.3647,19.1829 29.0314,19.6829 31.5,20.5C 28.1667,20.5 24.8333,20.5 21.5,20.5C 21.5,22.8333 21.5,25.1667 21.5,27.5C 20.8186,25.8415 19.9853,24.1749 19,22.5C 18.6905,23.7659 18.1905,24.9326 17.5,26C 19.158,26.7253 19.658,27.892 19,29.5C 17.4974,29.1654 16.164,29.1654 15,29.5C 14.6905,30.7659 14.1905,31.9326 13.5,33C 15.5,34.3333 17.5,35.6667 19.5,37C 18.7476,37.6708 18.4142,38.5041 18.5,39.5C 15.0674,36.9289 11.5674,34.2622 8,31.5C 7.33333,26.8333 7.33333,22.1667 8,17.5C 9.4685,14.8579 11.6352,13.1912 14.5,12.5 Z"/></g>
<g><path style="opacity:1" fill="#152c37" d="M 77.5,8.5 C 78.1667,8.5 78.8333,8.5 79.5,8.5C 79.5774,9.74975 80.244,10.5831 81.5,11C 85.6774,10.8889 90.0107,11.0555 94.5,11.5C 93.0427,13.6282 92.0427,15.9616 91.5,18.5C 88.3642,19.093 87.1975,20.7597 88,23.5C 87.6667,23.1667 87.3333,22.8333 87,22.5C 86.0766,23.7588 85.2432,25.0921 84.5,26.5C 83.2736,25.6371 81.9403,25.6371 80.5,26.5C 80.8168,22.2984 80.4834,18.2984 79.5,14.5C 78.6373,12.5786 77.9707,10.5786 77.5,8.5 Z"/></g>
<g><path style="opacity:1" fill="#071720" d="M 253.5,13.5 C 254.5,13.5 255.5,13.5 256.5,13.5C 254.582,25.1781 252.582,36.8448 250.5,48.5C 248.898,53.1049 247.565,57.6049 246.5,62C 250.821,62.499 255.154,62.6657 259.5,62.5C 259.5,61.5 259.5,60.5 259.5,59.5C 260.434,60.5676 260.768,61.901 260.5,63.5C 255.5,63.5 250.5,63.5 245.5,63.5C 247.043,50.6584 249.543,37.9917 253,25.5C 253.499,21.5138 253.666,17.5138 253.5,13.5 Z"/></g>
<g><path style="opacity:1" fill="#010e16" d="M 283.5,14.5 C 283.334,19.5111 283.501,24.5111 284,29.5C 285,30.8333 286,32.1667 287,33.5C 287.221,42.5466 287.721,51.5466 288.5,60.5C 288.5,61.8333 288.5,63.1667 288.5,64.5C 292.833,64.5 297.167,64.5 301.5,64.5C 301.918,65.2216 302.584,65.7216 303.5,66C 301.19,66.4966 298.857,66.6633 296.5,66.5C 296.5,69.8333 296.5,73.1667 296.5,76.5C 292.833,76.5 289.167,76.5 285.5,76.5C 284.951,72.2483 284.951,68.4149 285.5,65C 279.962,66.2296 274.295,66.563 268.5,66C 268.579,63.695 268.746,61.195 269,58.5C 269.77,57.4019 270.603,57.4019 271.5,58.5C 271.5,59.8333 271.5,61.1667 271.5,62.5C 276.073,62.88 280.073,61.5467 283.5,58.5C 282.047,55.5753 281.047,52.5753 280.5,49.5C 279.992,45.8026 279.326,42.1359 278.5,38.5C 277.245,33.8944 276.245,29.2277 275.5,24.5C 276.474,25.635 277.641,26.635 279,27.5C 280.815,23.2139 282.315,18.8806 283.5,14.5 Z"/></g>
<g><path style="opacity:1" fill="#314b50" d="M 188.5,24.5 C 188.859,26.371 189.859,27.871 191.5,29C 194.02,30.6971 196.353,32.5305 198.5,34.5C 197.749,35.5735 196.749,35.7401 195.5,35C 192.948,32.1471 190.115,29.6471 187,27.5C 186.333,25.5 186.333,23.5 187,21.5C 187.232,22.7375 187.732,23.7375 188.5,24.5 Z"/></g>
<g><path style="opacity:1" fill="#07161f" d="M 313.5,13.5 C 314.458,13.9528 315.292,14.6195 316,15.5C 316.499,21.1569 316.666,26.8236 316.5,32.5C 319.957,32.6672 320.29,33.6672 317.5,35.5C 316.504,41.7985 316.17,48.1318 316.5,54.5C 315.833,54.8333 315.167,55.1667 314.5,55.5C 314.743,41.475 314.409,27.475 313.5,13.5 Z"/></g>
<g><path style="opacity:1" fill="#132a35" d="M 44.5,10.5 C 50.266,11.804 55.9327,11.804 61.5,10.5C 62.4345,11.5676 62.7678,12.901 62.5,14.5C 61.2921,15.2341 59.9587,15.5674 58.5,15.5C 58.5,20.1667 58.5,24.8333 58.5,29.5C 57.6773,26.023 57.1773,22.3563 57,18.5C 55.6012,19.2266 54.1012,19.7266 52.5,20C 53.448,20.4828 54.448,20.6495 55.5,20.5C 55.5,23.5 55.5,26.5 55.5,29.5C 54.5,29.5 53.5,29.5 52.5,29.5C 52.264,31.9732 50.9307,33.6399 48.5,34.5C 47.8326,31.3583 47.166,28.3583 46.5,25.5C 46.2612,20.4304 45.5946,15.4304 44.5,10.5 Z"/></g>
<g><path style="opacity:1" fill="#1c3640" d="M 157.5,20.5 C 157.5,24.1667 157.5,27.8333 157.5,31.5C 161.167,31.5 164.833,31.5 168.5,31.5C 168.665,35.1817 168.499,38.8484 168,42.5C 164.399,41.1802 160.899,41.1802 157.5,42.5C 156.069,43.0819 154.736,43.9152 153.5,45C 154.5,45.3333 155.5,45.6667 156.5,46C 155.167,47 155.167,48 156.5,49C 155.874,49.7504 155.374,50.5838 155,51.5C 154.23,50.4019 153.397,50.4019 152.5,51.5C 152.345,47.8507 150.678,45.184 147.5,43.5C 147.623,41.6225 147.623,39.7891 147.5,38C 148.901,36.323 150.235,34.6563 151.5,33C 151.354,31.2729 150.687,31.1062 149.5,32.5C 148.5,32.1667 147.833,31.5 147.5,30.5C 148.809,26.3024 148.809,22.1357 147.5,18C 147.833,17.8333 148.167,17.6667 148.5,17.5C 149.298,19.0777 149.798,20.7444 150,22.5C 150.667,23.8333 151.333,23.8333 152,22.5C 152.374,23.4162 152.874,24.2496 153.5,25C 152.269,26.1827 152.269,27.3493 153.5,28.5C 155.679,26.1601 157.013,23.4934 157.5,20.5 Z"/></g>
<g><path style="opacity:1" fill="#18303b" d="M 110.5,9.5 C 111.458,10.9616 112.624,12.2949 114,13.5C 115.15,17.8159 116.984,21.8159 119.5,25.5C 122.274,19.6135 125.274,13.9468 128.5,8.5C 128.5,9.5 128.5,10.5 128.5,11.5C 132.824,11.0728 137.158,10.7395 141.5,10.5C 141.843,12.4832 141.176,13.8166 139.5,14.5C 138.661,15.6412 137.994,16.9745 137.5,18.5C 138.426,22.0938 138.759,25.7604 138.5,29.5C 135.09,29.3838 133.756,31.0504 134.5,34.5C 135.833,34.5 137.167,34.5 138.5,34.5C 138.666,39.5111 138.499,44.5111 138,49.5C 136.595,51.1911 135.428,53.0245 134.5,55C 132.892,55.658 131.725,55.158 131,53.5C 130.583,54.756 129.75,55.4226 128.5,55.5C 128.666,48.4921 128.5,41.4921 128,34.5C 124.723,39.9055 122.223,45.5722 120.5,51.5C 119.5,51.5 118.5,51.5 117.5,51.5C 115.293,45.3804 112.793,39.3804 110,33.5C 108.932,42.0579 109.432,50.3913 111.5,58.5C 111.631,59.3764 111.298,60.0431 110.5,60.5C 107.501,57.3803 103.834,55.3803 99.5,54.5C 99.9232,39.0908 99.2566,23.7575 97.5,8.5C 101.931,8.23071 106.265,8.56404 110.5,9.5 Z"/></g>
<g><path style="opacity:1" fill="#010f17" d="M 243.5,26.5 C 243.423,27.7498 242.756,28.5831 241.5,29C 239.5,29.6667 237.5,29.6667 235.5,29C 234.478,26.4552 233.312,23.9552 232,21.5C 229.619,22.435 227.119,22.7683 224.5,22.5C 225.447,26.4786 225.614,30.4786 225,34.5C 227.876,34.1118 230.709,33.7785 233.5,33.5C 235.374,33.3898 236.874,34.0564 238,35.5C 238.689,34.6433 239.522,33.9767 240.5,33.5C 242.003,34.0522 243.669,34.0522 245.5,33.5C 246.038,38.4671 245.371,43.1338 243.5,47.5C 240.5,47.5 237.5,47.5 234.5,47.5C 234.67,48.8221 234.337,49.9887 233.5,51C 230.007,52.0037 226.841,51.5037 224,49.5C 223.5,42.1742 223.334,34.8409 223.5,27.5C 222.58,22.5196 224.58,20.1862 229.5,20.5C 233.842,20.1757 235.842,22.1757 235.5,26.5C 238.167,26.5 240.833,26.5 243.5,26.5 Z"/></g>
<g><path style="opacity:1" fill="#041118" d="M 178.5,14.5 C 178.5,15.1667 178.5,15.8333 178.5,16.5C 178.334,21.8437 178.501,27.1771 179,32.5C 184.413,36.4565 189.913,40.2899 195.5,44C 196.74,45.7301 197.74,47.5634 198.5,49.5C 198.182,50.6473 197.516,51.4806 196.5,52C 193.076,52.7466 189.743,52.58 186.5,51.5C 185.266,48.46 182.932,47.1267 179.5,47.5C 178.662,47.8417 178.328,48.5084 178.5,49.5C 177.357,52.9758 177.19,56.6425 178,60.5C 178.903,61.7014 180.069,62.5348 181.5,63C 188.167,63.6667 194.833,63.6667 201.5,63C 202.71,61.9609 203.71,60.7942 204.5,59.5C 206.001,58.2485 207.668,57.2485 209.5,56.5C 207.597,59.7485 205.263,62.7485 202.5,65.5C 195.5,66.8333 188.5,66.8333 181.5,65.5C 179.851,64.3523 178.351,63.019 177,61.5C 177.102,57.0442 176.268,53.0442 174.5,49.5C 172.265,49.2053 170.265,49.5386 168.5,50.5C 168.082,51.2216 167.416,51.7216 166.5,52C 163.518,52.498 160.518,52.6646 157.5,52.5C 157.5,49.1667 157.5,45.8333 157.5,42.5C 160.899,41.1802 164.399,41.1802 168,42.5C 168.499,38.8484 168.665,35.1817 168.5,31.5C 169.131,33.9028 170.131,36.2361 171.5,38.5C 172.429,37.3112 172.762,35.9778 172.5,34.5C 178.674,36.4341 183.674,40.1007 187.5,45.5C 188.167,45.1667 188.833,44.8333 189.5,44.5C 191.524,46.3581 193.691,48.0248 196,49.5C 196.167,49.1667 196.333,48.8333 196.5,48.5C 190.309,43.1481 183.809,38.1481 177,33.5C 176.333,27.5 176.333,21.5 177,15.5C 177.383,14.944 177.883,14.6107 178.5,14.5 Z"/></g>
<g><path style="opacity:1" fill="#19333d" d="M 255.5,8.5 C 255.414,9.4959 255.748,10.3292 256.5,11C 262.196,11.1701 267.862,11.6701 273.5,12.5C 272.068,14.297 272.401,15.6303 274.5,16.5C 274.575,19.2062 274.908,21.8728 275.5,24.5C 276.245,29.2277 277.245,33.8944 278.5,38.5C 277.351,38.7911 276.684,39.6244 276.5,41C 277.511,45.2779 278.678,49.4445 280,53.5C 280.49,52.2068 280.657,50.8734 280.5,49.5C 281.047,52.5753 282.047,55.5753 283.5,58.5C 280.073,61.5467 276.073,62.88 271.5,62.5C 271.5,61.1667 271.5,59.8333 271.5,58.5C 271.708,56.0799 271.374,53.7466 270.5,51.5C 266.555,50.5091 262.555,50.1758 258.5,50.5C 258.567,51.9587 258.234,53.2921 257.5,54.5C 256.292,53.7659 254.959,53.4326 253.5,53.5C 253.5,52.1667 253.5,50.8333 253.5,49.5C 252.209,49.7373 251.209,49.404 250.5,48.5C 252.582,36.8448 254.582,25.1781 256.5,13.5C 255.5,13.5 254.5,13.5 253.5,13.5C 253.402,11.4471 254.069,9.78041 255.5,8.5 Z"/></g>
<g><path style="opacity:1" fill="#040f17" d="M 263.5,27.5 C 264.822,27.33 265.989,27.6634 267,28.5C 267.837,33.1796 268.671,37.8462 269.5,42.5C 266.5,42.5 263.5,42.5 260.5,42.5C 261.343,37.4637 262.343,32.4637 263.5,27.5 Z"/></g>
<g><path style="opacity:1" fill="#294148" d="M 24.5,31.5 C 30.1894,34.6757 35.5227,38.3423 40.5,42.5C 40.5,47.8333 40.5,53.1667 40.5,58.5C 39.6739,53.6835 39.1739,48.6835 39,43.5C 35.1667,41 31.3333,38.5 27.5,36C 25.8588,34.871 24.8588,33.371 24.5,31.5 Z"/></g>
<g><path style="opacity:1" fill="#0b1d26" d="M 214.5,14.5 C 214.5,14.8333 214.5,15.1667 214.5,15.5C 214.335,19.1817 214.501,22.8484 215,26.5C 216.61,26.8696 218.11,26.2029 219.5,24.5C 219.833,25 220.167,25.5 220.5,26C 218.72,28.2234 216.386,29.3901 213.5,29.5C 214.129,38.8203 214.462,48.1536 214.5,57.5C 212.692,56.0821 212.025,54.0821 212.5,51.5C 212.333,39.4954 212.5,27.4954 213,15.5C 213.383,14.944 213.883,14.6107 214.5,14.5 Z"/></g>
<g><path style="opacity:1" fill="#2b454c" d="M 199.5,36.5 C 202.891,37.5293 205.557,39.5293 207.5,42.5C 207.103,43.525 206.437,43.6917 205.5,43C 202.932,41.2689 200.932,39.1023 199.5,36.5 Z"/></g>
<g><path style="opacity:1" fill="#010d16" d="M 73.5,13.5 C 74.5347,16.0362 75.5347,19.0362 76.5,22.5C 75.5765,24.1285 75.2432,25.6285 75.5,27C 77.7455,32.9809 77.4121,38.6476 74.5,44C 76.478,44.4807 77.8113,45.6473 78.5,47.5C 78.096,49.7637 78.096,51.9303 78.5,54C 77.6266,55.045 76.6266,55.8783 75.5,56.5C 75.81,53.2869 75.4767,50.2869 74.5,47.5C 71.9228,47.4551 69.9228,48.4551 68.5,50.5C 67.8333,50.8333 67.1667,51.1667 66.5,51.5C 63.8333,51.5 61.1667,51.5 58.5,51.5C 58.5,44.1667 58.5,36.8333 58.5,29.5C 58.5,24.8333 58.5,20.1667 58.5,15.5C 59.9587,15.5674 61.2921,15.2341 62.5,14.5C 61.2982,17.3189 61.2982,19.8189 62.5,22C 61.4216,22.6739 60.7549,23.6739 60.5,25C 62.1825,31.3468 63.1825,37.5135 63.5,43.5C 64.5761,44.6559 65.5761,44.4892 66.5,43C 65.267,41.3023 64.6004,39.3023 64.5,37C 64.6667,35.1667 64.8333,33.3333 65,31.5C 65.4252,27.6938 67.5919,25.8604 71.5,26C 70.5842,25.7216 69.9175,25.2216 69.5,24.5C 76.0619,25.0816 76.7286,23.2482 71.5,19C 72.1094,17.0517 72.776,15.2184 73.5,13.5 Z"/></g>
<g><path style="opacity:1" fill="#152c37" d="M 326.5,18.5 C 326.5,22.5 326.5,26.5 326.5,30.5C 332.529,30.5745 338.529,30.2412 344.5,29.5C 344.5,33.8333 344.5,38.1667 344.5,42.5C 342.319,42.7163 340.653,41.883 339.5,40C 335.179,39.501 330.846,39.3343 326.5,39.5C 326.5,43.8333 326.5,48.1667 326.5,52.5C 333.626,53.2172 340.292,52.2172 346.5,49.5C 347.525,49.8966 347.692,50.5632 347,51.5C 345.229,52.3041 343.729,53.4708 342.5,55C 338.093,54.9067 333.76,55.0734 329.5,55.5C 327.68,55.3507 326.18,54.6841 325,53.5C 322.546,55.013 320.879,54.3463 320,51.5C 318.383,52.5358 318.216,53.7025 319.5,55C 318.251,55.7401 317.251,55.5735 316.5,54.5C 316.17,48.1318 316.504,41.7985 317.5,35.5C 320.29,33.6672 319.957,32.6672 316.5,32.5C 316.666,26.8236 316.499,21.1569 316,15.5C 315.292,14.6195 314.458,13.9528 313.5,13.5C 313.461,12.2438 313.961,11.2438 315,10.5C 315.853,12.1247 316.853,12.4581 318,11.5C 318.684,12.7839 318.517,13.9505 317.5,15C 318.5,15.3333 319.5,15.6667 320.5,16C 321.5,19.3333 322.5,19.3333 323.5,16C 326.472,15.1458 327.472,15.9792 326.5,18.5 Z"/></g>
<g><path style="opacity:1" fill="#172e39" d="M 58.5,29.5 C 58.5,36.8333 58.5,44.1667 58.5,51.5C 61.1667,51.5 63.8333,51.5 66.5,51.5C 65.8953,53.0257 64.7286,54.0257 63,54.5C 62.6667,56.1667 62.3333,57.8333 62,59.5C 61.6667,58.8333 61.3333,58.1667 61,57.5C 57.7875,59.6054 54.6209,60.4387 51.5,60C 52.6956,59.3457 52.6956,58.8457 51.5,58.5C 49.4705,59.1717 47.4705,59.8384 45.5,60.5C 46.458,48.8838 46.7913,37.2172 46.5,25.5C 47.166,28.3583 47.8326,31.3583 48.5,34.5C 50.9307,33.6399 52.264,31.9732 52.5,29.5C 53.5,29.5 54.5,29.5 55.5,29.5C 55.5,26.5 55.5,23.5 55.5,20.5C 54.448,20.6495 53.448,20.4828 52.5,20C 54.1012,19.7266 55.6012,19.2266 57,18.5C 57.1773,22.3563 57.6773,26.023 58.5,29.5 Z"/></g>
<g><path style="opacity:1" fill="#284249" d="M 278.5,38.5 C 279.326,42.1359 279.992,45.8026 280.5,49.5C 280.657,50.8734 280.49,52.2068 280,53.5C 278.678,49.4445 277.511,45.2779 276.5,41C 276.684,39.6244 277.351,38.7911 278.5,38.5 Z"/></g>
<g><path style="opacity:1" fill="#18303a" d="M 91.5,18.5 C 91.3334,31.1711 91.5001,43.8377 92,56.5C 92.7172,57.0442 93.2172,57.7109 93.5,58.5C 92.4729,61.2604 90.6396,61.9271 88,60.5C 85.0647,62.1916 81.8981,62.8583 78.5,62.5C 80.3637,50.6343 81.0304,38.6343 80.5,26.5C 81.9403,25.6371 83.2736,25.6371 84.5,26.5C 85.2432,25.0921 86.0766,23.7588 87,22.5C 87.3333,22.8333 87.6667,23.1667 88,23.5C 87.1975,20.7597 88.3642,19.093 91.5,18.5 Z"/></g>
<g><path style="opacity:1" fill="#162d37" d="M 21.5,27.5 C 22.2112,29.0301 23.2112,30.3634 24.5,31.5C 24.8588,33.371 25.8588,34.871 27.5,36C 31.3333,38.5 35.1667,41 39,43.5C 39.1739,48.6835 39.6739,53.6835 40.5,58.5C 40.2504,59.9221 39.417,60.9221 38,61.5C 37.15,60.5761 36.15,60.5761 35,61.5C 34.0546,61.0946 33.3879,60.428 33,59.5C 32,59.8333 31,60.1667 30,60.5C 26.9491,58.981 23.7824,57.981 20.5,57.5C 20.5,57.1667 20.5,56.8333 20.5,56.5C 28.1981,57.8067 30.8647,54.8067 28.5,47.5C 24.7317,45.2945 21.3984,42.6278 18.5,39.5C 18.4142,38.5041 18.7476,37.6708 19.5,37C 17.5,35.6667 15.5,34.3333 13.5,33C 14.1905,31.9326 14.6905,30.7659 15,29.5C 16.164,29.1654 17.4974,29.1654 19,29.5C 19.658,27.892 19.158,26.7253 17.5,26C 18.1905,24.9326 18.6905,23.7659 19,22.5C 19.9853,24.1749 20.8186,25.8415 21.5,27.5 Z"/></g>
<g><path style="opacity:1" fill="#2f4a51" d="M 179.5,47.5 C 182.932,47.1267 185.266,48.46 186.5,51.5C 186.103,52.525 185.437,52.6917 184.5,52C 182.76,50.483 181.094,48.983 179.5,47.5 Z"/></g>
<g><path style="opacity:1" fill="#263e45" d="M 223.5,27.5 C 223.334,34.8409 223.5,42.1742 224,49.5C 226.841,51.5037 230.007,52.0037 233.5,51C 234.337,49.9887 234.67,48.8221 234.5,47.5C 237.5,47.5 240.5,47.5 243.5,47.5C 243.5,50.1667 243.5,52.8333 243.5,55.5C 242.539,53.7354 242.205,51.7354 242.5,49.5C 238.123,50.9952 233.623,52.3285 229,53.5C 226.41,53.6243 224.077,52.9577 222,51.5C 221.333,42.5 221.333,33.5 222,24.5C 222.232,25.7375 222.732,26.7375 223.5,27.5 Z"/></g>
<g><path style="opacity:1" fill="#253f47" d="M 157.5,42.5 C 157.5,45.8333 157.5,49.1667 157.5,52.5C 160.518,52.6646 163.518,52.498 166.5,52C 167.416,51.7216 168.082,51.2216 168.5,50.5C 170.781,50.0773 172.448,50.744 173.5,52.5C 169.838,53.1563 166.172,53.823 162.5,54.5C 159.869,54.6793 157.535,54.0127 155.5,52.5C 154.078,53.7768 153.078,53.4435 152.5,51.5C 153.397,50.4019 154.23,50.4019 155,51.5C 155.374,50.5838 155.874,49.7504 156.5,49C 155.167,48 155.167,47 156.5,46C 155.5,45.6667 154.5,45.3333 153.5,45C 154.736,43.9152 156.069,43.0819 157.5,42.5 Z"/></g>
<g><path style="opacity:1" fill="#112833" d="M 139.5,14.5 C 139.333,28.8372 139.5,43.1705 140,57.5C 141.319,59.2495 141.819,61.2495 141.5,63.5C 136.167,63.5 130.833,63.5 125.5,63.5C 125.016,60.2118 126.016,57.5452 128.5,55.5C 129.75,55.4226 130.583,54.756 131,53.5C 131.725,55.158 132.892,55.658 134.5,55C 135.428,53.0245 136.595,51.1911 138,49.5C 138.499,44.5111 138.666,39.5111 138.5,34.5C 137.167,34.5 135.833,34.5 134.5,34.5C 133.756,31.0504 135.09,29.3838 138.5,29.5C 138.759,25.7604 138.426,22.0938 137.5,18.5C 137.994,16.9745 138.661,15.6412 139.5,14.5 Z"/></g>
<g><path style="opacity:1" fill="#172f3a" d="M 146.5,8.5 C 146.5,9.5 146.5,10.5 146.5,11.5C 155.608,11.3387 164.608,11.3387 173.5,11.5C 173.5,10.5 173.5,9.5 173.5,8.5C 174.486,12.97 174.819,17.6367 174.5,22.5C 168.889,21.4453 163.222,20.7786 157.5,20.5C 157.013,23.4934 155.679,26.1601 153.5,28.5C 152.269,27.3493 152.269,26.1827 153.5,25C 152.874,24.2496 152.374,23.4162 152,22.5C 151.333,23.8333 150.667,23.8333 150,22.5C 149.798,20.7444 149.298,19.0777 148.5,17.5C 148.167,17.6667 147.833,17.8333 147.5,18C 148.809,22.1357 148.809,26.3024 147.5,30.5C 147.833,31.5 148.5,32.1667 149.5,32.5C 150.687,31.1062 151.354,31.2729 151.5,33C 150.235,34.6563 148.901,36.323 147.5,38C 147.623,39.7891 147.623,41.6225 147.5,43.5C 150.678,45.184 152.345,47.8507 152.5,51.5C 153.078,53.4435 154.078,53.7768 155.5,52.5C 157.535,54.0127 159.869,54.6793 162.5,54.5C 166.172,53.823 169.838,53.1563 173.5,52.5C 173.5,55.8333 173.5,59.1667 173.5,62.5C 169.395,62.7662 165.395,62.2662 161.5,61C 163.192,59.5993 163.859,57.7659 163.5,55.5C 162.448,55.3505 161.448,55.5172 160.5,56C 159.853,57.6095 159.02,59.1095 158,60.5C 154.106,59.6067 150.273,59.6067 146.5,60.5C 145.614,59.675 145.281,58.675 145.5,57.5C 146.388,54.9455 146.721,52.2788 146.5,49.5C 147.23,38.5706 147.063,27.5706 146,16.5C 144.004,13.6626 144.171,10.9959 146.5,8.5 Z"/></g>
<g><path style="opacity:1" fill="#233a42" d="M 146.5,8.5 C 155.5,8.5 164.5,8.5 173.5,8.5C 173.5,9.5 173.5,10.5 173.5,11.5C 164.608,11.3387 155.608,11.3387 146.5,11.5C 146.5,10.5 146.5,9.5 146.5,8.5 Z"/></g>
<g><path style="opacity:1" fill="#0e2532" d="M 239.5,61.5 C 239.389,62.1174 239.056,62.6174 238.5,63C 231.833,63.6667 225.167,63.6667 218.5,63C 217.117,61.7292 216.117,60.2292 215.5,58.5C 215.866,57.3054 216.699,56.6387 218,56.5C 219.477,57.444 220.477,58.7774 221,60.5C 222.574,59.0158 223.907,57.3492 225,55.5C 226,56.1667 227,56.8333 228,57.5C 229.695,57.7759 231.528,57.4426 233.5,56.5C 234.938,56.7189 236.271,57.2189 237.5,58C 237.011,59.5523 237.678,60.719 239.5,61.5 Z"/></g>
<g><path style="opacity:1" fill="#122b36" d="M 250.5,48.5 C 251.209,49.404 252.209,49.7373 253.5,49.5C 253.5,50.8333 253.5,52.1667 253.5,53.5C 254.959,53.4326 256.292,53.7659 257.5,54.5C 257.392,56.5138 258.058,58.1805 259.5,59.5C 259.5,60.5 259.5,61.5 259.5,62.5C 255.154,62.6657 250.821,62.499 246.5,62C 247.565,57.6049 248.898,53.1049 250.5,48.5 Z"/></g>
<g><path style="opacity:1" fill="#0f2531" d="M 74.5,47.5 C 75.4767,50.2869 75.81,53.2869 75.5,56.5C 75.5,58.8333 75.5,61.1667 75.5,63.5C 65.5,63.5 55.5,63.5 45.5,63.5C 45.5,62.5 45.5,61.5 45.5,60.5C 47.4705,59.8384 49.4705,59.1717 51.5,58.5C 52.6956,58.8457 52.6956,59.3457 51.5,60C 54.6209,60.4387 57.7875,59.6054 61,57.5C 61.3333,58.1667 61.6667,58.8333 62,59.5C 62.3333,57.8333 62.6667,56.1667 63,54.5C 64.7286,54.0257 65.8953,53.0257 66.5,51.5C 67.1667,51.1667 67.8333,50.8333 68.5,50.5C 70.1727,52.5561 70.8394,54.7228 70.5,57C 69.3284,57.3534 68.1618,57.1868 67,56.5C 64.7235,57.6399 64.3901,58.9732 66,60.5C 66.3333,59.8333 66.6667,59.1667 67,58.5C 69.2713,60.4337 71.2713,60.4337 73,58.5C 73.3333,58.8333 73.6667,59.1667 74,59.5C 74.4988,55.5138 74.6655,51.5138 74.5,47.5 Z"/></g>
<g><path style="opacity:1" fill="#0d2531" d="M 99.5,54.5 C 103.834,55.3803 107.501,57.3803 110.5,60.5C 111.298,60.0431 111.631,59.3764 111.5,58.5C 113.256,59.5521 113.923,61.2188 113.5,63.5C 108.167,63.5 102.833,63.5 97.5,63.5C 97.2104,60.2153 97.877,57.2153 99.5,54.5 Z"/></g>
<g><path style="opacity:1" fill="#0a202b" d="M 314.5,55.5 C 315.167,55.1667 315.833,54.8333 316.5,54.5C 317.251,55.5735 318.251,55.7401 319.5,55C 318.216,53.7025 318.383,52.5358 320,51.5C 320.879,54.3463 322.546,55.013 325,53.5C 326.18,54.6841 327.68,55.3507 329.5,55.5C 333.76,55.0734 338.093,54.9067 342.5,55C 343.729,53.4708 345.229,52.3041 347,51.5C 347.692,50.5632 347.525,49.8966 346.5,49.5C 347.585,47.4178 349.085,47.0844 351,48.5C 351.499,53.8229 351.666,59.1563 351.5,64.5C 338.833,64.5 326.167,64.5 313.5,64.5C 313.726,61.7508 313.393,59.0841 312.5,56.5C 312.957,55.7025 313.624,55.3691 314.5,55.5 Z"/></g>
<g><path style="opacity:1" fill="#162e39" d="M 74.5,47.5 C 74.6655,51.5138 74.4988,55.5138 74,59.5C 73.6667,59.1667 73.3333,58.8333 73,58.5C 71.2713,60.4337 69.2713,60.4337 67,58.5C 66.6667,59.1667 66.3333,59.8333 66,60.5C 64.3901,58.9732 64.7235,57.6399 67,56.5C 68.1618,57.1868 69.3284,57.3534 70.5,57C 70.8394,54.7228 70.1727,52.5561 68.5,50.5C 69.9228,48.4551 71.9228,47.4551 74.5,47.5 Z"/></g>
<g><path style="opacity:1" fill="#102631" d="M 40.5,42.5 C 41.6533,48.6529 41.82,54.9863 41,61.5C 38.5,63.3333 36,65.1667 33.5,67C 30.5184,67.498 27.5184,67.6646 24.5,67.5C 24.9528,66.5416 25.6195,65.7083 26.5,65C 25.6667,64.1667 24.8333,63.3333 24,62.5C 21.7646,63.2393 19.7646,63.2393 18,62.5C 17.5065,60.8659 17.3398,59.1992 17.5,57.5C 18.5,57.5 19.5,57.5 20.5,57.5C 23.7824,57.981 26.9491,58.981 30,60.5C 31,60.1667 32,59.8333 33,59.5C 33.3879,60.428 34.0546,61.0946 35,61.5C 36.15,60.5761 37.15,60.5761 38,61.5C 39.417,60.9221 40.2504,59.9221 40.5,58.5C 40.5,53.1667 40.5,47.8333 40.5,42.5 Z"/></g>
<g><path style="opacity:1" fill="#102834" d="M 178.5,49.5 C 178.351,50.552 178.517,51.552 179,52.5C 182.537,51.1817 184.371,52.515 184.5,56.5C 186.5,55.8333 188.5,55.1667 190.5,54.5C 190.338,56.5273 190.505,58.5273 191,60.5C 191.308,59.6919 191.808,59.0253 192.5,58.5C 194.362,59.5899 196.195,60.5899 198,61.5C 200.087,60.6028 202.254,59.9361 204.5,59.5C 203.71,60.7942 202.71,61.9609 201.5,63C 194.833,63.6667 188.167,63.6667 181.5,63C 180.069,62.5348 178.903,61.7014 178,60.5C 177.19,56.6425 177.357,52.9758 178.5,49.5 Z"/></g>
<g><path style="opacity:1" fill="#0d2532" d="M 168.5,50.5 C 170.265,49.5386 172.265,49.2053 174.5,49.5C 174.5,54.1667 174.5,58.8333 174.5,63.5C 164.5,63.5 154.5,63.5 144.5,63.5C 144.205,61.2646 144.539,59.2646 145.5,57.5C 145.281,58.675 145.614,59.675 146.5,60.5C 150.273,59.6067 154.106,59.6067 158,60.5C 159.02,59.1095 159.853,57.6095 160.5,56C 161.448,55.5172 162.448,55.3505 163.5,55.5C 163.859,57.7659 163.192,59.5993 161.5,61C 165.395,62.2662 169.395,62.7662 173.5,62.5C 173.5,59.1667 173.5,55.8333 173.5,52.5C 172.448,50.744 170.781,50.0773 168.5,50.5 Z"/></g>
<g><path style="opacity:1" fill="#0b202a" d="M 20.5,56.5 C 20.5,56.8333 20.5,57.1667 20.5,57.5C 19.5,57.5 18.5,57.5 17.5,57.5C 17.3398,59.1992 17.5065,60.8659 18,62.5C 19.7646,63.2393 21.7646,63.2393 24,62.5C 24.8333,63.3333 25.6667,64.1667 26.5,65C 25.6195,65.7083 24.9528,66.5416 24.5,67.5C 19.8215,67.6658 15.1548,67.4992 10.5,67C 9.97473,66.3076 9.30806,65.8076 8.5,65.5C 7.19579,60.2805 7.19579,55.1139 8.5,50C 9.94371,49.2195 11.277,49.3861 12.5,50.5C 14.3633,53.7124 17.03,55.7124 20.5,56.5 Z"/></g>
<g><path style="opacity:1" fill="#081d29" d="M 93.5,58.5 C 94.4511,59.9187 94.7845,61.5853 94.5,63.5C 88.9738,63.8214 83.6405,63.4881 78.5,62.5C 81.8981,62.8583 85.0647,62.1916 88,60.5C 90.6396,61.9271 92.4729,61.2604 93.5,58.5 Z"/></g>
<g><path style="opacity:1" fill="#0c2431" d="M 303.5,59.5 C 303.923,61.7812 303.256,63.4479 301.5,64.5C 297.167,64.5 292.833,64.5 288.5,64.5C 288.5,63.1667 288.5,61.8333 288.5,60.5C 290.711,60.7822 293.044,60.7822 295.5,60.5C 296.914,61.624 298.414,62.624 300,63.5C 300.333,62.5 300.667,61.5 301,60.5C 301.333,60.8333 301.667,61.1667 302,61.5C 302.278,60.5842 302.778,59.9175 303.5,59.5 Z"/></g>
<g><path style="opacity:1" fill="#01111a" d="M 144.5,63.5 C 154.5,63.5 164.5,63.5 174.5,63.5C 174.5,64.5 174.5,65.5 174.5,66.5C 164.5,66.5 154.5,66.5 144.5,66.5C 144.5,65.5 144.5,64.5 144.5,63.5 Z"/></g>
<g><path style="opacity:1" fill="#000e18" d="M 180.5,81.5 C 170.5,81.5 160.5,81.5 150.5,81.5C 150.244,79.2075 150.577,77.0408 151.5,75C 161.134,73.137 170.801,73.137 180.5,75C 180.596,77.2374 180.596,79.4041 180.5,81.5 Z"/></g>
</svg>
